Motion_pl14
version=1
nRows=6
nColumns=43
inDegrees=yes
endheader
time	pelvis_tilt	pelvis_list	pelvis_rotation	pelvis_tx	pelvis_ty	pelvis_tz	hip_flexion_r	hip_adduction_r	hip_rotation_r	knee_angle_r	ankle_angle_r	subtalar_angle_r	mtp_angle_r	hip_flexion_l	hip_adduction_l	hip_rotation_l	knee_angle_l	ankle_angle_l	subtalar_angle_l	mtp_angle_l	lumbar_extension	lumbar_bending	lumbar_rotation	neck_flexion	neck_lateral_bending	neck_rotation	arm_flex_r	arm_add_r	arm_rot_r	elbow_flex_r	pro_sup_r	wrist_flex_r	wrist_dev_r	hand_finger_flex_r	arm_flex_l	arm_add_l	arm_rot_l	elbow_flex_l	pro_sup_l	wrist_flex_l	wrist_dev_l	hand_finger_flex_l
      1.51500000	     -0.15109410	     -1.24316658	     88.12608985	     -0.02022491	      0.61315797	      0.45382830	     69.63492171	     -9.19834617	     -1.06611013	   -115.06291414	     27.30320680	     19.23895720	     32.45431597	     67.71742713	    -18.03895111	     -7.14820974	   -116.67272786	     20.93534414	     22.02800276	     38.56612272	    -33.07341175	      2.26202549	      8.30661012	     17.39902695	     -1.29205963	      1.70973262	    139.16341924	    -20.20024811	     56.01223976	     38.59124658	    116.14428245	     -6.76026775	      4.31018633	      8.47464726	    150.25392593	    -29.31589910	     79.64893562	     47.32034720	    104.73381699	    -16.64480341	     -5.65629072	     30.91496917
      1.51750000	     -0.12979357	     -1.02523528	     88.20859374	     -0.02051578	      0.61584822	      0.45209463	     69.00528823	     -9.27384140	     -1.13049937	   -114.76835372	     27.20943650	     19.22653949	     32.50831961	     67.07673991	    -17.97740837	     -7.22774495	   -116.34886910	     20.82948398	     22.12210193	     38.61980476	    -32.85049289	      2.35148094	      8.35351340	     16.96397113	     -1.42763158	      1.70160883	    139.09467824	    -20.37274318	     56.06836969	     38.69248406	    116.17240610	     -6.57228960	      4.36289691	      8.32632628	    150.31361505	    -29.43084763	     79.92560230	     47.45182635	    104.94311387	    -16.58799655	     -5.65575709	     30.89371089
      1.52000000	     -0.11225831	     -1.07450925	     88.23304752	     -0.02064290	      0.61794072	      0.45067259	     68.72255313	     -9.22545564	     -1.13304762	   -114.48451895	     27.16387398	     19.22679022	     32.51069536	     66.79793576	    -17.90855244	     -7.24196894	   -116.04453669	     20.80219962	     22.13380262	     38.62736926	    -32.38853810	      2.39398754	      8.39584043	     17.02992525	     -1.43376490	      1.70063803	    139.06221964	    -20.42946177	     56.08159319	     38.62756782	    116.17414589	     -6.53808770	      4.38284024	      8.30393204	    150.34024930	    -29.47851021	     79.96832048	     47.41000036	    104.97800439	    -16.57723414	     -5.64041812	     30.88809801
      1.52250000	     -0.09954199	     -0.47574723	     88.32910576	     -0.02090492	      0.62153830	      0.44901333	     67.62068109	     -9.32655513	     -1.20892335	   -114.12556562	     27.15862716	     19.17515504	     32.73681830	     65.68383323	    -17.82408095	     -7.34471680	   -115.64504299	     20.75208946	     22.26992109	     38.81673125	    -32.67978885	      2.44318256	      8.36671073	     16.97658261	     -1.45495588	      1.65603946	    139.14608141	    -20.51793525	     56.05093203	     38.63913450	    116.11397349	     -6.13587953	      4.49176298	      7.76270672	    150.70014556	    -29.55130694	     80.52051282	     47.48089945	    105.54745500	    -16.60793666	     -5.37972757	     30.68044167
      1.52500000	     -0.08197422	     -0.54751081	     88.35656962	     -0.02099976	      0.62360440	      0.44754566	     67.36439212	     -9.28034843	     -1.21821647	   -113.84503072	     27.09471326	     19.18024678	     32.73644825	     65.42895491	    -17.76482152	     -7.36828718	   -115.33953954	     20.72516210	     22.27262323	     38.82401748	    -32.18814359	      2.47671317	      8.41523458	     17.00931563	     -1.47112088	      1.66788377	    139.10149461	    -20.60437461	     56.06148078	     38.59659140	    116.11058047	     -6.10963480	      4.49126846	      7.74461966	    150.71527622	    -29.60449599	     80.55367688	     47.48896097	    105.56163542	    -16.58818987	     -5.37868028	     30.67819620
      1.52750000	     -0.07218681	     -0.43747409	     88.39899906	     -0.02122560	      0.62616559	      0.44581106	     66.87395288	     -9.31953245	     -1.25187206	   -113.54264643	     26.93199732	     19.17620708	     32.78320976	     64.90582362	    -17.71467079	     -7.45459638	   -115.00487427	     20.64692359	     22.27065740	     38.87760740	    -31.85301396	      2.52969898	      8.45684327	     16.61941735	     -1.55510832	      1.66699778	    138.98050105	    -20.81103001	     56.06650104	     38.78160029	    116.05528858	     -5.99688878	      4.41602508	      7.62711490	    150.76338147	    -29.76483075	     80.79359685	     47.68485696	    105.68772414	    -16.49893671	     -5.34111293	     30.64351939
